<svg width="57" height="43" viewBox="0 0 57 43" fill="none" xmlns="http://www.w3.org/2000/svg">
<path d="M10.65 21.35C10.65 14.5718 11.3522 10.5738 12.2933 8.33861C12.7539 7.2446 13.2243 6.68869 13.5868 6.40806C13.9198 6.1503 14.255 6.05 14.65 6.05V2.05C13.445 2.05 12.2302 2.3997 11.1382 3.24506C10.0757 4.06756 9.24609 5.26789 8.60673 6.78638C7.34785 9.77623 6.65 14.4282 6.65 21.35H10.65ZM14.65 6.05C15 6.05 15.3167 6.14149 15.6477 6.40296C16.0091 6.68849 16.4808 7.25409 16.9436 8.35579C17.8867 10.601 18.6 14.6029 18.6 21.35H22.6C22.6 14.4471 21.8883 9.799 20.6314 6.80671C19.9942 5.28966 19.1721 4.08964 18.1273 3.26423C17.052 2.41476 15.85 2.05 14.65 2.05V6.05ZM18.6 21.35C18.6 28.1979 17.8867 32.2808 16.9384 34.5816C16.4722 35.7127 15.996 36.2968 15.6307 36.5918C15.298 36.8606 14.9867 36.95 14.65 36.95V40.95C15.8633 40.95 17.0708 40.5706 18.1443 39.7035C19.1853 38.8625 20.0028 37.6436 20.6366 36.1059C21.8883 33.0692 22.6 28.3521 22.6 21.35H18.6ZM14.65 36.95C14.268 36.95 13.9383 36.8513 13.6039 36.5866C13.2377 36.2967 12.7626 35.7223 12.2985 34.5988C11.352 32.308 10.65 28.229 10.65 21.35H6.65C6.65 28.371 7.34798 33.092 8.60154 36.1262C9.23738 37.6652 10.0623 38.8846 11.1211 39.7228C12.2117 40.5862 13.432 40.95 14.65 40.95V36.95ZM14.65 0.199997C10.7764 0.199997 7.07615 1.87974 4.4055 5.48439C1.77722 9.03185 0.25 14.2916 0.25 21.35H4.25C4.25 14.8084 5.67278 10.4932 7.6195 7.86561C9.52385 5.29526 12.0236 4.2 14.65 4.2V0.199997ZM0.25 21.35C0.25 28.5033 1.775 33.8328 4.39642 37.4283C7.06109 41.0831 10.7621 42.8 14.65 42.8V38.8C12.0379 38.8 9.53891 37.6919 7.62858 35.0717C5.675 32.3922 4.25 27.9967 4.25 21.35H0.25ZM14.65 42.8C18.4956 42.8 22.181 41.0768 24.8411 37.4283C27.4609 33.835 29 28.5071 29 21.35H25C25 27.9929 23.5641 32.39 21.6089 35.0717C19.694 37.6982 17.2044 38.8 14.65 38.8V42.8ZM29 21.35C29 14.2877 27.4586 9.0296 24.832 5.48439C22.1659 1.88587 18.4813 0.199997 14.65 0.199997V4.2C17.2187 4.2 19.7091 5.28912 21.618 7.86561C23.5664 10.4954 25 14.8123 25 21.35H29ZM47.6992 37.55L45.7003 37.6145L45.7553 39.3211L47.4494 39.5343L47.6992 37.55ZM47.5492 10.95L45.5498 10.9003L45.5492 10.9252V10.95H47.5492ZM47.7492 2.9L49.7486 2.94967L49.7735 1.94701L48.9849 1.32736L47.7492 2.9ZM47.0492 2.35L48.2849 0.777361L47.5255 0.180698L46.586 0.404387L47.0492 2.35ZM34.4492 5.35L33.986 3.40439L32.4492 3.77028V5.35H34.4492ZM34.4492 7.2H32.4492V9.40998L34.6482 9.19007L34.4492 7.2ZM40.9492 6.55H42.9492V4.34002L40.7502 4.55993L40.9492 6.55ZM40.7992 37.55L41.0407 39.5354L42.7429 39.3283L42.7982 37.6145L40.7992 37.55ZM33.3992 38.45L33.1578 36.4646L31.3992 36.6785V38.45H33.3992ZM33.3992 40H31.3992V42H33.3992V40ZM54.8492 40V42H56.8492V40H54.8492ZM54.8492 38.45H56.8492V36.686L55.099 36.4657L54.8492 38.45ZM49.6982 37.4855C49.5989 34.407 49.5492 31.3285 49.5492 28.25H45.5492C45.5492 31.3715 45.5996 34.493 45.7003 37.6145L49.6982 37.4855ZM49.5492 28.25V10.95H45.5492V28.25H49.5492ZM49.5486 10.9997L49.7486 2.94967L45.7498 2.85032L45.5498 10.9003L49.5486 10.9997ZM48.9849 1.32736L48.2849 0.777361L45.8136 3.92264L46.5136 4.47264L48.9849 1.32736ZM46.586 0.404387L33.986 3.40439L34.9125 7.29561L47.5125 4.29561L46.586 0.404387ZM32.4492 5.35V7.2H36.4492V5.35H32.4492ZM34.6482 9.19007L41.1482 8.54007L40.7502 4.55993L34.2502 5.20992L34.6482 9.19007ZM38.9492 6.55V28.25H42.9492V6.55H38.9492ZM38.9492 28.25C38.9492 31.3285 38.8996 34.407 38.8003 37.4855L42.7982 37.6145C42.8989 34.493 42.9492 31.3715 42.9492 28.25H38.9492ZM40.5578 35.5646L33.1578 36.4646L33.6407 40.4354L41.0407 39.5354L40.5578 35.5646ZM31.3992 38.45V40H35.3992V38.45H31.3992ZM33.3992 42H54.8492V38H33.3992V42ZM56.8492 40V38.45H52.8492V40H56.8492ZM55.099 36.4657L47.949 35.5657L47.4494 39.5343L54.5994 40.4343L55.099 36.4657Z" fill="#D62828"/>
</svg>
