<svg width="59" height="43" viewBox="0 0 59 43" fill="none" xmlns="http://www.w3.org/2000/svg">
<path d="M10.65 21.35C10.65 14.5718 11.3522 10.5738 12.2933 8.33861C12.7539 7.2446 13.2243 6.68869 13.5868 6.40806C13.9198 6.1503 14.255 6.05 14.65 6.05V2.05C13.445 2.05 12.2302 2.3997 11.1382 3.24506C10.0757 4.06756 9.24609 5.26789 8.60673 6.78638C7.34785 9.77623 6.65 14.4282 6.65 21.35H10.65ZM14.65 6.05C15 6.05 15.3167 6.14149 15.6477 6.40296C16.0091 6.68849 16.4808 7.25409 16.9436 8.35579C17.8867 10.601 18.6 14.6029 18.6 21.35H22.6C22.6 14.4471 21.8883 9.799 20.6314 6.80671C19.9942 5.28966 19.1721 4.08964 18.1273 3.26423C17.052 2.41476 15.85 2.05 14.65 2.05V6.05ZM18.6 21.35C18.6 28.1979 17.8867 32.2808 16.9384 34.5816C16.4722 35.7127 15.996 36.2968 15.6307 36.5918C15.298 36.8606 14.9867 36.95 14.65 36.95V40.95C15.8633 40.95 17.0708 40.5706 18.1443 39.7035C19.1853 38.8625 20.0028 37.6436 20.6366 36.1059C21.8883 33.0692 22.6 28.3521 22.6 21.35H18.6ZM14.65 36.95C14.268 36.95 13.9383 36.8513 13.6039 36.5866C13.2377 36.2967 12.7626 35.7223 12.2985 34.5988C11.352 32.308 10.65 28.229 10.65 21.35H6.65C6.65 28.371 7.34798 33.092 8.60154 36.1262C9.23738 37.6652 10.0623 38.8846 11.1211 39.7228C12.2117 40.5862 13.432 40.95 14.65 40.95V36.95ZM14.65 0.199997C10.7764 0.199997 7.07615 1.87974 4.4055 5.48439C1.77722 9.03185 0.25 14.2916 0.25 21.35H4.25C4.25 14.8084 5.67278 10.4932 7.6195 7.86561C9.52385 5.29526 12.0236 4.2 14.65 4.2V0.199997ZM0.25 21.35C0.25 28.5033 1.775 33.8328 4.39642 37.4283C7.06109 41.0831 10.7621 42.8 14.65 42.8V38.8C12.0379 38.8 9.53891 37.6919 7.62858 35.0717C5.675 32.3922 4.25 27.9967 4.25 21.35H0.25ZM14.65 42.8C18.4956 42.8 22.181 41.0768 24.8411 37.4283C27.4609 33.835 29 28.5071 29 21.35H25C25 27.9929 23.5641 32.39 21.6089 35.0717C19.694 37.6982 17.2044 38.8 14.65 38.8V42.8ZM29 21.35C29 14.2877 27.4586 9.0296 24.832 5.48439C22.1659 1.88587 18.4813 0.199997 14.65 0.199997V4.2C17.2187 4.2 19.7091 5.28912 21.618 7.86561C23.5664 10.4954 25 14.8123 25 21.35H29ZM35.7992 34.7L34.4294 33.2427L30.7515 36.7H35.7992V34.7ZM42.1992 28.75L40.8774 27.2491L40.8693 27.2562L40.8613 27.2634L42.1992 28.75ZM31.8992 10.75L29.9106 10.5369L29.8502 11.1011L30.0949 11.6129L31.8992 10.75ZM38.1992 8.85L36.264 8.34516L36.2461 8.41375L36.2331 8.48343L38.1992 8.85ZM39.3992 4.25L39.0306 2.28425L37.7841 2.51798L37.464 3.74516L39.3992 4.25ZM40.3492 26.65L38.8471 25.3296L38.8441 25.333L40.3492 26.65ZM32.0492 36.1L30.5482 34.7782L30.0492 35.3449V36.1H32.0492ZM32.0492 40H30.0492V42H32.0492V40ZM56.0492 40V42H58.0492V40H56.0492ZM56.0492 34.7H58.0492V32.7H56.0492V34.7ZM37.169 36.1573C39.6748 33.8018 42.0569 31.5688 43.5371 30.2366L40.8613 27.2634C39.3416 28.6312 36.9236 30.8982 34.4294 33.2427L37.169 36.1573ZM43.5211 30.2509C47.8908 26.4025 51.2008 23.4031 53.4005 20.6998C55.6512 17.9339 56.8992 15.2884 56.8992 12.15H52.8992C52.8992 14.0616 52.1972 15.8411 50.2979 18.1752C48.3477 20.5719 45.3076 23.3475 40.8774 27.2491L43.5211 30.2509ZM56.8992 12.15C56.8992 8.83596 55.9148 5.76488 53.6298 3.52728C51.3468 1.29168 48.033 0.149998 43.8992 0.149998V4.15C47.3154 4.15 49.5017 5.08332 50.8312 6.38522C52.1586 7.68512 52.8992 9.61404 52.8992 12.15H56.8992ZM43.8992 0.149998C37.2665 0.149998 30.6686 3.46196 29.9106 10.5369L33.8878 10.9631C34.3298 6.83803 38.2319 4.15 43.8992 4.15V0.149998ZM30.0949 11.6129C30.9457 13.3918 32.6586 14.65 34.8492 14.65V10.65C34.3399 10.65 33.9527 10.4082 33.7035 9.88709L30.0949 11.6129ZM34.8492 14.65C35.9964 14.65 37.2381 14.2973 38.2683 13.278C39.2498 12.307 39.8481 10.9183 40.1653 9.21656L36.2331 8.48343C36.0004 9.73171 35.6486 10.243 35.4551 10.4345C35.3103 10.5777 35.152 10.65 34.8492 10.65V14.65ZM40.1345 9.35484L41.3345 4.75484L37.464 3.74516L36.264 8.34516L40.1345 9.35484ZM39.7678 6.21574C40.4982 6.0788 41.1664 6 41.7492 6V2C40.8321 2 39.9003 2.1212 39.0306 2.28425L39.7678 6.21574ZM41.7492 6C43.2147 6 44.2361 6.53539 44.9347 7.4037C45.6749 8.32368 46.1992 9.8091 46.1992 11.9H50.1992C50.1992 9.19089 49.5236 6.72631 48.0512 4.89629C46.5373 3.01461 44.3337 2 41.7492 2V6ZM46.1992 11.9C46.1992 16.0729 44.3135 19.1109 38.8471 25.3296L41.8514 27.9704C47.285 21.7891 50.1992 17.7271 50.1992 11.9H46.1992ZM38.8441 25.333C36.396 28.1308 33.4976 31.429 30.5482 34.7782L33.5502 37.4218C36.5009 34.071 39.4024 30.7692 41.8544 27.967L38.8441 25.333ZM30.0492 36.1V40H34.0492V36.1H30.0492ZM32.0492 42H56.0492V38H32.0492V42ZM58.0492 40V34.7H54.0492V40H58.0492ZM56.0492 32.7H35.7992V36.7H56.0492V32.7Z" fill="#286ED6"/>
</svg>
