<svg width="59" height="43" viewBox="0 0 59 43" fill="none" xmlns="http://www.w3.org/2000/svg">
<path d="M10.65 21.35C10.65 14.5718 11.3522 10.5738 12.2933 8.33861C12.7539 7.2446 13.2243 6.68869 13.5868 6.40806C13.9198 6.1503 14.255 6.05 14.65 6.05V2.05C13.445 2.05 12.2302 2.3997 11.1382 3.24506C10.0757 4.06756 9.24609 5.26789 8.60673 6.78638C7.34785 9.77623 6.65 14.4282 6.65 21.35H10.65ZM14.65 6.05C15 6.05 15.3167 6.14149 15.6477 6.40296C16.0091 6.68849 16.4808 7.25409 16.9436 8.35579C17.8867 10.601 18.6 14.6029 18.6 21.35H22.6C22.6 14.4471 21.8883 9.799 20.6314 6.80671C19.9942 5.28966 19.1721 4.08964 18.1273 3.26423C17.052 2.41476 15.85 2.05 14.65 2.05V6.05ZM18.6 21.35C18.6 28.1979 17.8867 32.2808 16.9384 34.5816C16.4722 35.7127 15.996 36.2968 15.6307 36.5918C15.298 36.8606 14.9867 36.95 14.65 36.95V40.95C15.8633 40.95 17.0708 40.5706 18.1443 39.7035C19.1853 38.8625 20.0028 37.6436 20.6366 36.1059C21.8883 33.0692 22.6 28.3521 22.6 21.35H18.6ZM14.65 36.95C14.268 36.95 13.9383 36.8513 13.6039 36.5866C13.2377 36.2967 12.7626 35.7223 12.2985 34.5988C11.352 32.308 10.65 28.229 10.65 21.35H6.65C6.65 28.371 7.34798 33.092 8.60154 36.1262C9.23738 37.6652 10.0623 38.8846 11.1211 39.7228C12.2117 40.5862 13.432 40.95 14.65 40.95V36.95ZM14.65 0.199997C10.7764 0.199997 7.07615 1.87974 4.4055 5.48439C1.77722 9.03185 0.25 14.2916 0.25 21.35H4.25C4.25 14.8084 5.67278 10.4932 7.6195 7.86561C9.52385 5.29526 12.0236 4.2 14.65 4.2V0.199997ZM0.25 21.35C0.25 28.5033 1.775 33.8328 4.39642 37.4283C7.06109 41.0831 10.7621 42.8 14.65 42.8V38.8C12.0379 38.8 9.53891 37.6919 7.62858 35.0717C5.675 32.3922 4.25 27.9967 4.25 21.35H0.25ZM14.65 42.8C18.4956 42.8 22.181 41.0768 24.8411 37.4283C27.4609 33.835 29 28.5071 29 21.35H25C25 27.9929 23.5641 32.39 21.6089 35.0717C19.694 37.6982 17.2044 38.8 14.65 38.8V42.8ZM29 21.35C29 14.2877 27.4586 9.0296 24.832 5.48439C22.1659 1.88587 18.4813 0.199997 14.65 0.199997V4.2C17.2187 4.2 19.7091 5.28912 21.618 7.86561C23.5664 10.4954 25 14.8123 25 21.35H29ZM39.9992 4.2L39.607 2.23884L38.3621 2.48782L38.0576 3.7203L39.9992 4.2ZM38.9492 19.6V17.6H36.9492V19.6H38.9492ZM38.9492 21.65H36.9492V23.65H38.9492V21.65ZM38.6992 38.65L36.7416 39.0597L36.9984 40.2863L38.2141 40.5903L38.6992 38.65ZM37.7992 34.35L35.8273 34.6842L35.8338 34.7221L35.8416 34.7597L37.7992 34.35ZM31.5992 32.45L29.7377 31.7187L29.5541 32.1861L29.613 32.6847L31.5992 32.45ZM46.1992 20.45L45.7403 18.5034L45.8816 22.4246L46.1992 20.45ZM32.9492 10.05L30.9574 9.86893L30.9095 10.3959L31.1285 10.8776L32.9492 10.05ZM38.9492 8.45L37.0076 7.9703L36.9899 8.0418L36.9776 8.1144L38.9492 8.45ZM40.3915 6.16116C40.9845 6.04254 41.5492 6 42.1492 6V2C41.3492 2 40.5139 2.05745 39.607 2.23884L40.3915 6.16116ZM42.1492 6C43.7499 6 44.7307 6.47919 45.3435 7.17349C45.9918 7.90796 46.4992 9.18971 46.4992 11.3H50.4992C50.4992 8.61029 49.8566 6.24203 48.3424 4.5265C46.7928 2.77081 44.5986 2 42.1492 2V6ZM46.4992 11.3C46.4992 13.688 45.8424 15.2062 44.9563 16.1211C44.0763 17.0297 42.722 17.6 40.7992 17.6V21.6C43.5264 21.6 46.0221 20.7703 47.8297 18.9039C49.6311 17.0438 50.4992 14.412 50.4992 11.3H46.4992ZM40.7992 17.6H38.9492V21.6H40.7992V17.6ZM36.9492 19.6V21.65H40.9492V19.6H36.9492ZM38.9492 23.65H41.1492V19.65H38.9492V23.65ZM41.1492 23.65C43.4186 23.65 44.8573 24.3164 45.7531 25.2981C46.6762 26.3097 47.2992 27.9583 47.2992 30.45H51.2992C51.2992 27.3417 50.5223 24.5903 48.7078 22.6019C46.8661 20.5836 44.2298 19.65 41.1492 19.65V23.65ZM47.2992 30.45C47.2992 32.8066 46.6696 34.3747 45.7448 35.3455C44.8341 36.3016 43.3784 36.95 41.1492 36.95V40.95C44.1701 40.95 46.7893 40.0484 48.6411 38.1045C50.4788 36.1753 51.2992 33.4934 51.2992 30.45H47.2992ZM41.1492 36.95C40.4627 36.95 39.8256 36.87 39.1843 36.7097L38.2141 40.5903C39.1729 40.83 40.1358 40.95 41.1492 40.95V36.95ZM40.6568 38.2403L39.7568 33.9403L35.8416 34.7597L36.7416 39.0597L40.6568 38.2403ZM39.7711 34.0158C39.5024 32.4304 39.0481 30.9939 38.1193 29.9584C37.0834 28.8033 35.748 28.45 34.4492 28.45V32.45C35.0004 32.45 35.0901 32.5717 35.1416 32.6291C35.3003 32.8061 35.5961 33.3196 35.8273 34.6842L39.7711 34.0158ZM34.4492 28.45C32.5486 28.45 30.6138 29.4887 29.7377 31.7187L33.4607 33.1813C33.5918 32.8477 33.7575 32.6875 33.8892 32.6019C34.0321 32.509 34.2203 32.45 34.4492 32.45V28.45ZM29.613 32.6847C29.9948 35.9149 31.416 38.5387 33.8654 40.3086C36.2581 42.0375 39.4209 42.8 43.0492 42.8V38.8C39.9276 38.8 37.6904 38.1375 36.2081 37.0664C34.7824 36.0363 33.8536 34.4851 33.5854 32.2153L29.613 32.6847ZM43.0492 42.8C47.3873 42.8 51.1291 41.6477 53.8299 39.4692C56.5664 37.2618 58.0992 34.1005 58.0992 30.45H54.0992C54.0992 32.8995 53.107 34.9132 51.3185 36.3558C49.4943 37.8273 46.7111 38.8 43.0492 38.8V42.8ZM58.0992 30.45C58.0992 27.5317 57.3038 24.7902 55.3023 22.6146C53.3212 20.4612 50.3719 19.0954 46.5168 18.4754L45.8816 22.4246C49.1765 22.9546 51.1773 24.0388 52.3586 25.3229C53.5196 26.5848 54.0992 28.2683 54.0992 30.45H58.0992ZM46.6582 22.3966C50.0166 21.6048 52.6292 20.1895 54.4063 18.1719C56.2019 16.1332 56.9992 13.643 56.9992 11H52.9992C52.9992 12.807 52.4715 14.3168 51.4046 15.5281C50.3192 16.7605 48.5319 17.8452 45.7403 18.5034L46.6582 22.3966ZM56.9992 11C56.9992 7.87943 55.8391 5.07849 53.4721 3.09278C51.1448 1.1403 47.8618 0.149998 43.8992 0.149998V4.15C47.2367 4.15 49.5037 4.98469 50.9013 6.15722C52.2593 7.2965 52.9992 8.92056 52.9992 11H56.9992ZM43.8992 0.149998C40.8462 0.149998 37.8164 0.79953 35.4195 2.36207C32.9528 3.97012 31.2651 6.48488 30.9574 9.86893L34.941 10.2311C35.1334 8.11512 36.1207 6.67988 37.6039 5.71293C39.157 4.70047 41.3523 4.15 43.8992 4.15V0.149998ZM31.1285 10.8776C31.991 12.7752 33.7611 13.7 35.5992 13.7V9.7C35.3431 9.7 35.1712 9.63984 35.0629 9.57459C34.9633 9.51453 34.8578 9.41565 34.77 9.22239L31.1285 10.8776ZM35.5992 13.7C36.8093 13.7 38.0699 13.3719 39.1014 12.4412C40.1136 11.528 40.6727 10.2437 40.9209 8.7856L36.9776 8.1144C36.8258 9.00626 36.5598 9.34696 36.422 9.47127C36.3036 9.57811 36.0891 9.7 35.5992 9.7V13.7ZM40.8908 8.92969L41.9408 4.67969L38.0576 3.7203L37.0076 7.9703L40.8908 8.92969Z" fill="#069976"/>
</svg>
