<svg width="60" height="43" viewBox="0 0 60 43" fill="none" xmlns="http://www.w3.org/2000/svg">
<path d="M10.65 21.35C10.65 14.5718 11.3522 10.5738 12.2933 8.33861C12.7539 7.2446 13.2243 6.68869 13.5868 6.40806C13.9198 6.1503 14.255 6.05 14.65 6.05V2.05C13.445 2.05 12.2302 2.3997 11.1382 3.24506C10.0757 4.06756 9.24609 5.26789 8.60673 6.78638C7.34785 9.77623 6.65 14.4282 6.65 21.35H10.65ZM14.65 6.05C15 6.05 15.3167 6.14149 15.6477 6.40296C16.0091 6.68849 16.4808 7.25409 16.9436 8.35579C17.8867 10.601 18.6 14.6029 18.6 21.35H22.6C22.6 14.4471 21.8883 9.799 20.6314 6.80671C19.9942 5.28966 19.1721 4.08964 18.1273 3.26423C17.052 2.41476 15.85 2.05 14.65 2.05V6.05ZM18.6 21.35C18.6 28.1979 17.8867 32.2808 16.9384 34.5816C16.4722 35.7127 15.996 36.2968 15.6307 36.5918C15.298 36.8606 14.9867 36.95 14.65 36.95V40.95C15.8633 40.95 17.0708 40.5706 18.1443 39.7035C19.1853 38.8625 20.0028 37.6436 20.6366 36.1059C21.8883 33.0692 22.6 28.3521 22.6 21.35H18.6ZM14.65 36.95C14.268 36.95 13.9383 36.8513 13.6039 36.5866C13.2377 36.2967 12.7626 35.7223 12.2985 34.5988C11.352 32.308 10.65 28.229 10.65 21.35H6.65C6.65 28.371 7.34798 33.092 8.60154 36.1262C9.23738 37.6652 10.0623 38.8846 11.1211 39.7228C12.2117 40.5862 13.432 40.95 14.65 40.95V36.95ZM14.65 0.199997C10.7764 0.199997 7.07615 1.87974 4.4055 5.48439C1.77722 9.03185 0.25 14.2916 0.25 21.35H4.25C4.25 14.8084 5.67278 10.4932 7.6195 7.86561C9.52385 5.29526 12.0236 4.2 14.65 4.2V0.199997ZM0.25 21.35C0.25 28.5033 1.775 33.8328 4.39642 37.4283C7.06109 41.0831 10.7621 42.8 14.65 42.8V38.8C12.0379 38.8 9.53891 37.6919 7.62858 35.0717C5.675 32.3922 4.25 27.9967 4.25 21.35H0.25ZM14.65 42.8C18.4956 42.8 22.181 41.0768 24.8411 37.4283C27.4609 33.835 29 28.5071 29 21.35H25C25 27.9929 23.5641 32.39 21.6089 35.0717C19.694 37.6982 17.2044 38.8 14.65 38.8V42.8ZM29 21.35C29 14.2877 27.4586 9.0296 24.832 5.48439C22.1659 1.88587 18.4813 0.199997 14.65 0.199997V4.2C17.2187 4.2 19.7091 5.28912 21.618 7.86561C23.5664 10.4954 25 14.8123 25 21.35H29ZM33.5492 25.5L31.896 24.3745L29.7682 27.5H33.5492V25.5ZM45.5992 7.8H47.5992V1.30831L43.946 6.67448L45.5992 7.8ZM45.5992 25.5V27.5H47.5992V25.5H45.5992ZM57.1992 25.5H59.1992V23.5H57.1992V25.5ZM51.5492 25.5H49.5492V27.5H51.5492V25.5ZM51.5492 2.65H53.5492V0.649998H51.5492V2.65ZM46.9992 2.65V0.649998H45.9426L45.3471 1.52289L46.9992 2.65ZM30.8992 26.25L29.2471 25.1229L28.8992 25.6328V26.25H30.8992ZM30.8992 29.85H28.8992V31.85H30.8992V29.85ZM45.5992 29.85H47.5992V27.85H45.5992V29.85ZM45.5992 40H43.5992V42H45.5992V40ZM51.5492 40V42H53.5492V40H51.5492ZM51.5492 29.85V27.85H49.5492V29.85H51.5492ZM57.1992 29.85V31.85H59.1992V29.85H57.1992ZM35.2025 26.6255L47.2525 8.92551L43.946 6.67448L31.896 24.3745L35.2025 26.6255ZM43.5992 7.8V25.5H47.5992V7.8H43.5992ZM45.5992 23.5H33.5492V27.5H45.5992V23.5ZM57.1992 23.5H51.5492V27.5H57.1992V23.5ZM53.5492 25.5V2.65H49.5492V25.5H53.5492ZM51.5492 0.649998H46.9992V4.65H51.5492V0.649998ZM45.3471 1.52289L29.2471 25.1229L32.5514 27.3771L48.6514 3.77711L45.3471 1.52289ZM28.8992 26.25V29.85H32.8992V26.25H28.8992ZM30.8992 31.85H45.5992V27.85H30.8992V31.85ZM43.5992 29.85V40H47.5992V29.85H43.5992ZM45.5992 42H51.5492V38H45.5992V42ZM53.5492 40V29.85H49.5492V40H53.5492ZM51.5492 31.85H57.1992V27.85H51.5492V31.85ZM59.1992 29.85V25.5H55.1992V29.85H59.1992Z" fill="#F77F00"/>
</svg>
