<svg width="53" height="14" viewBox="0 0 53 14" fill="none" xmlns="http://www.w3.org/2000/svg">
<path fill-rule="evenodd" clip-rule="evenodd" d="M44.7074 13.1484C44.6181 13.0593 44.5472 12.9535 44.4989 12.837C44.4505 12.7204 44.4257 12.5955 44.4257 12.4694C44.4257 12.3432 44.4505 12.2183 44.4989 12.1018C44.5472 11.9853 44.6181 11.8794 44.7074 11.7903L49.7848 6.71484L44.7074 1.63933C44.5273 1.45924 44.4262 1.21499 44.4262 0.960299C44.4262 0.705612 44.5273 0.461355 44.7074 0.281264C44.8875 0.101172 45.1318 -9.8454e-07 45.3865 -9.95672e-07C45.6411 -1.00681e-06 45.8854 0.101172 46.0655 0.281264L51.82 6.0358C51.9094 6.12489 51.9802 6.23073 52.0286 6.34725C52.0769 6.46377 52.1018 6.58868 52.1018 6.71484C52.1018 6.84099 52.0769 6.9659 52.0286 7.08242C51.9802 7.19894 51.9094 7.30478 51.82 7.39387L46.0655 13.1484C45.9764 13.2377 45.8706 13.3086 45.754 13.3569C45.6375 13.4053 45.5126 13.4302 45.3865 13.4302C45.2603 13.4302 45.1354 13.4053 45.0189 13.3569C44.9024 13.3086 44.7965 13.2377 44.7074 13.1484Z" fill="#003049"/>
<path fill-rule="evenodd" clip-rule="evenodd" d="M-4.37113e-08 7C-5.53043e-08 6.73478 0.263393 6.48043 0.732233 6.29289C1.20107 6.10536 1.83696 6 2.5 6L47.5 6C48.163 6 48.7989 6.10536 49.2678 6.29289C49.7366 6.48043 50 6.73478 50 7C50 7.26522 49.7366 7.51957 49.2678 7.7071C48.7989 7.89464 48.163 8 47.5 8L2.5 8C1.83696 8 1.20107 7.89464 0.732234 7.70711C0.263393 7.51957 -3.21184e-08 7.26522 -4.37113e-08 7Z" fill="#003049"/>
</svg>
