<svg width="126" height="14" viewBox="0 0 126 14" fill="none" xmlns="http://www.w3.org/2000/svg">
<path fill-rule="evenodd" clip-rule="evenodd" d="M117.707 13.1484C117.618 13.0593 117.547 12.9535 117.499 12.837C117.451 12.7204 117.426 12.5955 117.426 12.4694C117.426 12.3432 117.451 12.2183 117.499 12.1018C117.547 11.9853 117.618 11.8794 117.707 11.7903L122.785 6.71484L117.707 1.63933C117.527 1.45924 117.426 1.21499 117.426 0.960299C117.426 0.705612 117.527 0.461355 117.707 0.281264C117.888 0.101172 118.132 -9.8454e-07 118.386 -9.95672e-07C118.641 -1.00681e-06 118.885 0.101172 119.065 0.281264L124.82 6.0358C124.909 6.12489 124.98 6.23073 125.029 6.34725C125.077 6.46377 125.102 6.58868 125.102 6.71484C125.102 6.84099 125.077 6.9659 125.029 7.08242C124.98 7.19894 124.909 7.30478 124.82 7.39387L119.065 13.1484C118.976 13.2377 118.871 13.3086 118.754 13.3569C118.638 13.4053 118.513 13.4302 118.386 13.4302C118.26 13.4302 118.135 13.4053 118.019 13.3569C117.902 13.3086 117.797 13.2377 117.707 13.1484Z" fill="#003049"/>
<path fill-rule="evenodd" clip-rule="evenodd" d="M73 7C73 6.73478 73.2634 6.48043 73.7322 6.29289C74.2011 6.10536 74.837 6 75.5 6L120.5 6C121.163 6 121.799 6.10536 122.268 6.29289C122.737 6.48043 123 6.73478 123 7C123 7.26522 122.737 7.51957 122.268 7.7071C121.799 7.89464 121.163 8 120.5 8L75.5 8C74.837 8 74.2011 7.89464 73.7322 7.70711C73.2634 7.51957 73 7.26522 73 7Z" fill="#003049"/>
<path fill-rule="evenodd" clip-rule="evenodd" d="M7.39462 13.1484C7.48393 13.0593 7.55479 12.9535 7.60315 12.837C7.6515 12.7204 7.67638 12.5955 7.67638 12.4694C7.67638 12.3432 7.6515 12.2183 7.60315 12.1018C7.55479 11.9853 7.48393 11.8794 7.39462 11.7903L2.3172 6.71484L7.39462 1.63933C7.57471 1.45924 7.67588 1.21499 7.67588 0.960299C7.67588 0.705612 7.57471 0.461355 7.39462 0.281264C7.21453 0.101172 6.97027 -9.8454e-07 6.71558 -9.95672e-07C6.46089 -1.00681e-06 6.21664 0.101172 6.03655 0.281264L0.282009 6.0358C0.192692 6.12489 0.12183 6.23073 0.0734795 6.34725C0.0251291 6.46377 0.000241102 6.58868 0.000241096 6.71484C0.000241091 6.84099 0.0251291 6.9659 0.0734795 7.08242C0.12183 7.19894 0.192692 7.30478 0.282009 7.39387L6.03655 13.1484C6.12564 13.2377 6.23147 13.3086 6.34799 13.3569C6.46451 13.4053 6.58943 13.4302 6.71558 13.4302C6.84173 13.4302 6.96665 13.4053 7.08317 13.3569C7.19969 13.3086 7.30552 13.2377 7.39462 13.1484Z" fill="black" fill-opacity="0.2"/>
<path fill-rule="evenodd" clip-rule="evenodd" d="M30 7C30 6.73478 29.8525 6.48043 29.5899 6.29289C29.3274 6.10536 28.9713 6 28.6 6L3.4 6C3.0287 6 2.6726 6.10536 2.41005 6.29289C2.1475 6.48043 2 6.73478 2 7C2 7.26522 2.1475 7.51957 2.41005 7.70711C2.6726 7.89464 3.0287 8 3.4 8L28.6 8C28.9713 8 29.3274 7.89464 29.5899 7.70711C29.8525 7.51957 30 7.26522 30 7Z" fill="black" fill-opacity="0.2"/>
</svg>
