<svg width="610" height="141" viewBox="0 0 610 141" fill="none" xmlns="http://www.w3.org/2000/svg">
<path d="M100.344 93.5312C99.2812 108.219 93.8438 119.781 84.0312 128.219C74.2812 136.656 61.4062 140.875 45.4062 140.875C27.9062 140.875 14.125 135 4.0625 123.25C-5.9375 111.438 -10.9375 95.25 -10.9375 74.6875V66.3438C-10.9375 53.2188 -8.625 41.6562 -4 31.6562C0.625 21.6562 7.21875 14 15.7812 8.6875C24.4062 3.3125 34.4062 0.625 45.7812 0.625C61.5312 0.625 74.2188 4.84375 83.8438 13.2812C93.4688 21.7188 99.0312 33.5625 100.531 48.8125H72.4062C71.7188 40 69.25 33.625 65 29.6875C60.8125 25.6875 54.4062 23.6875 45.7812 23.6875C36.4062 23.6875 29.375 27.0625 24.6875 33.8125C20.0625 40.5 17.6875 50.9062 17.5625 65.0312V75.3438C17.5625 90.0938 19.7812 100.875 24.2188 107.688C28.7188 114.5 35.7812 117.906 45.4062 117.906C54.0938 117.906 60.5625 115.938 64.8125 112C69.125 108 71.5938 101.844 72.2188 93.5312H100.344ZM125.817 116.406H185.536V139H97.6925V2.5H125.817V116.406ZM210.541 139H182.416V2.5H210.541V139ZM297.702 79.8438H243.702V116.406H307.077V139H215.577V2.5H306.89V25.2812H243.702V57.8125H297.702V79.8438ZM413.457 139H385.332L330.582 49.1875V139H302.457V2.5H330.582L385.426 92.5V2.5H413.457V139ZM516.837 25.2812H475.025V139H446.9V25.2812H405.65V2.5H516.837V25.2812ZM581.124 103.188C581.124 97.875 579.249 93.8125 575.499 91C571.749 88.125 564.999 85.125 555.249 82C545.499 78.8125 537.78 75.6875 532.092 72.625C516.592 64.25 508.842 52.9688 508.842 38.7812C508.842 31.4062 510.905 24.8437 515.03 19.0938C519.217 13.2812 525.186 8.75 532.936 5.5C540.749 2.25 549.499 0.625 559.186 0.625C568.936 0.625 577.624 2.40625 585.249 5.96875C592.874 9.46875 598.78 14.4375 602.967 20.875C607.217 27.3125 609.342 34.625 609.342 42.8125H581.217C581.217 36.5625 579.249 31.7188 575.311 28.2812C571.374 24.7813 565.842 23.0312 558.717 23.0312C551.842 23.0312 546.499 24.5 542.686 27.4375C538.874 30.3125 536.967 34.125 536.967 38.875C536.967 43.3125 539.186 47.0312 543.624 50.0312C548.124 53.0312 554.717 55.8438 563.405 58.4688C579.405 63.2812 591.061 69.25 598.374 76.375C605.686 83.5 609.342 92.375 609.342 103C609.342 114.812 604.874 124.094 595.936 130.844C586.999 137.531 574.967 140.875 559.842 140.875C549.342 140.875 539.78 138.969 531.155 135.156C522.53 131.281 515.936 126 511.374 119.312C506.874 112.625 504.624 104.875 504.624 96.0625H532.842C532.842 111.125 541.842 118.656 559.842 118.656C566.53 118.656 571.749 117.312 575.499 114.625C579.249 111.875 581.124 108.062 581.124 103.188Z" fill="#003049" fill-opacity="0.02"/>
</svg>
