<svg width="661" height="141" viewBox="0 0 661 141" fill="none" xmlns="http://www.w3.org/2000/svg">
<path d="M82.595 79.8438H28.595V116.406H91.97V139H0.470032V2.5H91.7825V25.2812H28.595V57.8125H82.595V79.8438ZM136.194 49.5625L161.788 2.5H194.131L154.381 70.1875L195.163 139H162.444L136.194 91.1875L109.944 139H77.225L118.006 70.1875L78.2563 2.5H110.6L136.194 49.5625ZM216.418 90.9062V139H188.293V2.5H241.543C251.793 2.5 260.793 4.375 268.543 8.125C276.355 11.875 282.355 17.2188 286.543 24.1562C290.73 31.0312 292.824 38.875 292.824 47.6875C292.824 61.0625 288.23 71.625 279.043 79.375C269.918 87.0625 257.261 90.9062 241.074 90.9062H216.418ZM216.418 68.125H241.543C248.98 68.125 254.636 66.375 258.511 62.875C262.449 59.375 264.418 54.375 264.418 47.875C264.418 41.1875 262.449 35.7812 258.511 31.6562C254.574 27.5312 249.136 25.4062 242.199 25.2812H216.418V68.125ZM373.235 79.8438H319.235V116.406H382.61V139H291.11V2.5H382.423V25.2812H319.235V57.8125H373.235V79.8438ZM428.521 89.0312H406.115V139H377.99V2.5H428.709C444.834 2.5 457.271 6.09375 466.021 13.2812C474.771 20.4688 479.146 30.625 479.146 43.75C479.146 53.0625 477.115 60.8438 473.053 67.0938C469.053 73.2812 462.959 78.2188 454.771 81.9062L484.303 137.688V139H454.115L428.521 89.0312ZM406.115 66.25H428.803C435.865 66.25 441.334 64.4688 445.209 60.9062C449.084 57.2812 451.021 52.3125 451.021 46C451.021 39.5625 449.178 34.5 445.49 30.8125C441.865 27.125 436.271 25.2812 428.709 25.2812H406.115V66.25ZM577.558 25.2812H535.745V139H507.62V25.2812H466.37V2.5H577.558V25.2812ZM641.844 103.188C641.844 97.875 639.969 93.8125 636.219 91C632.469 88.125 625.719 85.125 615.969 82C606.219 78.8125 598.5 75.6875 592.812 72.625C577.312 64.25 569.562 52.9688 569.562 38.7812C569.562 31.4062 571.625 24.8437 575.75 19.0938C579.938 13.2812 585.906 8.75 593.656 5.5C601.469 2.25 610.219 0.625 619.906 0.625C629.656 0.625 638.344 2.40625 645.969 5.96875C653.594 9.46875 659.5 14.4375 663.688 20.875C667.938 27.3125 670.062 34.625 670.062 42.8125H641.938C641.938 36.5625 639.969 31.7188 636.031 28.2812C632.094 24.7813 626.562 23.0312 619.438 23.0312C612.562 23.0312 607.219 24.5 603.406 27.4375C599.594 30.3125 597.688 34.125 597.688 38.875C597.688 43.3125 599.906 47.0312 604.344 50.0312C608.844 53.0312 615.438 55.8438 624.125 58.4688C640.125 63.2812 651.781 69.25 659.094 76.375C666.406 83.5 670.062 92.375 670.062 103C670.062 114.812 665.594 124.094 656.656 130.844C647.719 137.531 635.688 140.875 620.562 140.875C610.062 140.875 600.5 138.969 591.875 135.156C583.25 131.281 576.656 126 572.094 119.312C567.594 112.625 565.344 104.875 565.344 96.0625H593.562C593.562 111.125 602.562 118.656 620.562 118.656C627.25 118.656 632.469 117.312 636.219 114.625C639.969 111.875 641.844 108.062 641.844 103.188Z" fill="#003049" fill-opacity="0.02"/>
</svg>
