<svg width="111" height="96" viewBox="0 0 111 96" fill="none" xmlns="http://www.w3.org/2000/svg">
<path d="M47.43 81.605L47.985 83.945H48.795L48.675 80.945H39.45L39.33 83.945H40.14L40.695 81.605H43.155C43.2 83.105 43.2 84.605 43.2 86.09V86.855C43.2 88.355 43.2 89.84 43.155 91.295L41.505 91.46V92H46.62V91.46L44.97 91.295C44.94 89.81 44.94 88.325 44.94 86.855V86.09C44.94 84.56 44.94 83.075 44.97 81.605H47.43ZM53.1121 91.37C53.0971 89.87 53.0971 88.325 53.0971 86.645V86.12C53.0971 84.545 53.0971 83.045 53.1121 81.56H54.3871C56.8021 81.56 58.2121 83.285 58.2121 86.48C58.2121 89.57 56.8171 91.37 54.2671 91.37H53.1121ZM49.8421 80.945V81.485L51.3271 81.65C51.3571 83.12 51.3571 84.62 51.3571 86.12V86.66C51.3571 88.325 51.3571 89.84 51.3271 91.295L49.8421 91.46V92H54.3421C57.7771 92 60.1021 89.975 60.1021 86.465C60.1021 82.955 57.9571 80.945 54.6421 80.945H49.8421ZM72.0859 86.69H67.6309V87.245L69.3259 87.395C69.3559 88.43 69.3709 89.495 69.3709 90.53V91.31C68.8309 91.49 68.3209 91.58 67.7209 91.58C65.3209 91.58 63.7309 89.675 63.7309 86.465C63.7309 83.15 65.4259 81.335 67.7209 81.335C68.3659 81.335 68.9059 81.455 69.4309 81.74L69.9259 83.99H70.8109V81.485C69.8809 80.96 68.8909 80.675 67.5259 80.675C64.1509 80.675 61.8109 83.045 61.8109 86.465C61.8109 89.915 64.0909 92.27 67.4659 92.27C68.8309 92.27 69.8959 91.91 71.0509 91.28V90.545C71.0509 89.42 71.0659 88.37 71.0959 87.35L72.0859 87.245V86.69Z" fill="white"/>
<path d="M110.671 54.093C104.62 48.1804 96.9774 44.4133 88.5786 43.1984C87.9808 43.1165 87.4197 43.5213 87.3343 44.1146C87.2489 44.7067 87.6636 45.2572 88.2614 45.3446C95.8246 46.4372 102.735 49.7212 108.316 54.864C94.2388 67.8222 72.3541 68.1408 57.8864 55.838C78.484 54.361 94.9036 37.3659 95.0134 16.7664C95.0195 16.4766 94.9036 16.1984 94.6963 15.9936C94.4889 15.79 94.2083 15.6761 93.9155 15.6761C93.9155 15.6761 93.9156 15.6761 93.9095 15.6761C85.5777 15.7207 77.6119 18.2921 70.8842 23.1127C70.3963 23.4644 70.2865 24.1427 70.6403 24.627C71.0001 25.1106 71.6833 25.2203 72.1773 24.8679C78.2279 20.5322 85.3337 18.1235 92.7994 17.8669C92.1223 36.8081 76.8555 52.2721 57.7888 53.6707C71.2868 38.264 70.7927 14.8648 56.209 0.308556C55.7943 -0.102844 55.0624 -0.102844 54.6476 0.308556C48.658 6.28561 44.8459 13.83 43.6162 22.1254C43.5284 22.7175 43.9438 23.2681 44.5433 23.3554C45.1447 23.4416 45.7016 23.032 45.7888 22.4393C46.8959 14.9714 50.2194 8.14866 55.4283 2.63602C68.4201 16.417 68.6396 37.9255 56.1725 52.2058C54.6842 32.0442 37.6852 15.8948 17.0851 15.6858C16.8161 15.6942 16.5099 15.7954 16.3013 15.999C16.0933 16.2026 15.9756 16.4803 15.9756 16.7694V20.4521C15.9756 20.4883 15.9774 20.5256 15.981 20.5617C16.6611 27.158 19.0582 33.5188 22.9124 38.9567C23.2595 39.447 23.9432 39.5663 24.4409 39.2235C24.938 38.8796 25.0588 38.2038 24.7112 37.7135C21.0826 32.5929 18.8215 26.6057 18.1714 20.3967V17.8813C37.1075 18.6336 52.5677 33.6404 53.9767 52.3016C38.5745 39.1808 15.0589 39.7157 0.329413 53.9629C0.120203 54.1659 0.00124111 54.4423 2.12296e-05 54.7321C-0.00180859 55.0218 0.114721 55.2995 0.321491 55.5043L2.95883 58.1082C2.98505 58.1341 3.01255 58.1588 3.04061 58.1823C10.0659 63.8365 18.9374 66.9482 28.0322 66.9476C28.056 66.9476 28.0811 66.9476 28.1049 66.9476C35.2125 66.9422 42.1792 65.058 48.2615 61.4958C48.78 61.1904 48.9508 60.5254 48.6458 60.0104C48.3347 59.4954 47.6589 59.3255 47.1386 59.6315C41.4015 62.9926 34.827 64.7719 28.1183 64.7792C28.1164 64.7792 28.1152 64.7792 28.114 64.7792H28.0237C28.0195 64.7792 28.0146 64.7792 28.0103 64.7792C19.4462 64.7743 11.0924 61.8494 4.47153 56.5361L2.67036 54.7574C17.2455 41.4709 40.2232 41.7775 54.4158 55.6344C54.4158 55.6368 54.4158 55.638 54.4219 55.6404C62.1743 63.2143 72.3542 67 82.5402 67C92.7262 67 102.918 63.2106 110.671 55.6344C110.878 55.4308 111 55.1531 111 54.864C111 54.5743 110.878 54.2966 110.671 54.093Z" fill="white"/>
</svg>
