<svg width="21" height="14" viewBox="0 0 21 14" fill="none" xmlns="http://www.w3.org/2000/svg">
<path fill-rule="evenodd" clip-rule="evenodd" d="M13.6054 13.1484C13.5161 13.0593 13.4452 12.9535 13.3968 12.837C13.3485 12.7204 13.3236 12.5955 13.3236 12.4694C13.3236 12.3432 13.3485 12.2183 13.3968 12.1018C13.4452 11.9853 13.5161 11.8794 13.6054 11.7903L18.6828 6.71484L13.6054 1.63933C13.4253 1.45924 13.3241 1.21499 13.3241 0.960299C13.3241 0.705612 13.4253 0.461355 13.6054 0.281264C13.7855 0.101172 14.0297 -9.8454e-07 14.2844 -9.95672e-07C14.5391 -1.00681e-06 14.7834 0.101172 14.9634 0.281264L20.718 6.0358C20.8073 6.12489 20.8782 6.23073 20.9265 6.34725C20.9749 6.46377 20.9998 6.58868 20.9998 6.71484C20.9998 6.84099 20.9749 6.9659 20.9265 7.08242C20.8782 7.19894 20.8073 7.30478 20.718 7.39387L14.9634 13.1484C14.8744 13.2377 14.7685 13.3086 14.652 13.3569C14.5355 13.4053 14.4106 13.4302 14.2844 13.4302C14.1583 13.4302 14.0333 13.4053 13.9168 13.3569C13.8003 13.3086 13.6945 13.2377 13.6054 13.1484Z" fill="#908F8F"/>
<path fill-rule="evenodd" clip-rule="evenodd" d="M-4.37114e-08 7C-5.53043e-08 6.73478 0.100089 6.48043 0.278249 6.29289C0.456408 6.10536 0.698044 6 0.95 6L18.05 6C18.302 6 18.5436 6.10536 18.7218 6.29289C18.8999 6.48043 19 6.73478 19 7C19 7.26522 18.8999 7.51957 18.7218 7.70711C18.5436 7.89464 18.302 8 18.05 8L0.95 8C0.698044 8 0.456408 7.89464 0.278249 7.70711C0.100089 7.51957 -3.21184e-08 7.26522 -4.37114e-08 7Z" fill="#908F8F"/>
</svg>
