<svg width="50" height="14" viewBox="0 0 50 14" fill="none" xmlns="http://www.w3.org/2000/svg">
<path fill-rule="evenodd" clip-rule="evenodd" d="M12.3241 13.1484C12.4729 13.0593 12.5911 12.9535 12.6716 12.837C12.7522 12.7204 12.7937 12.5955 12.7937 12.4694C12.7937 12.3432 12.7522 12.2183 12.6716 12.1018C12.5911 11.9853 12.4729 11.8794 12.3241 11.7903L3.86165 6.71484L12.3241 1.63933C12.6242 1.45924 12.7929 1.21499 12.7929 0.9603C12.7929 0.705612 12.6242 0.461355 12.3241 0.281264C12.0239 0.101173 11.6168 -9.26816e-07 11.1923 -9.45371e-07C10.7679 -9.63926e-07 10.3608 0.101173 10.0606 0.281264L0.469644 6.0358C0.320782 6.12489 0.202677 6.23073 0.122092 6.34725C0.0415073 6.46377 2.68496e-05 6.58868 2.68441e-05 6.71484C2.68386e-05 6.84099 0.0415073 6.9659 0.122092 7.08242C0.202677 7.19894 0.320782 7.30478 0.469644 7.39387L10.0606 13.1484C10.2091 13.2377 10.3855 13.3086 10.5797 13.3569C10.7739 13.4053 10.9821 13.4302 11.1923 13.4302C11.4026 13.4302 11.6108 13.4053 11.805 13.3569C11.9992 13.3086 12.1756 13.2377 12.3241 13.1484V13.1484Z" fill="black"/>
<path fill-rule="evenodd" clip-rule="evenodd" d="M50 7C50 6.73478 49.7542 6.48043 49.3166 6.29289C48.879 6.10536 48.2855 6 47.6666 6L5.66631 6C5.04747 6 4.45397 6.10536 4.01638 6.29289C3.57879 6.48043 3.33296 6.73478 3.33296 7C3.33296 7.26521 3.57879 7.51957 4.01638 7.7071C4.45397 7.89464 5.04747 8 5.66631 8L47.6666 8C48.2855 8 48.879 7.89464 49.3166 7.70711C49.7542 7.51957 50 7.26522 50 7V7Z" fill="black"/>
</svg>
