<svg width="73" height="64" viewBox="0 0 73 64" fill="none" xmlns="http://www.w3.org/2000/svg">
<path d="M30.182 53.377L30.589 55.093H31.183L31.095 52.893H24.33L24.242 55.093H24.836L25.243 53.377H27.047C27.08 54.477 27.08 55.577 27.08 56.666V57.227C27.08 58.327 27.08 59.416 27.047 60.483L25.837 60.604V61H29.588V60.604L28.378 60.483C28.356 59.394 28.356 58.305 28.356 57.227V56.666C28.356 55.544 28.356 54.455 28.378 53.377H30.182ZM34.3489 60.538C34.3379 59.438 34.3379 58.305 34.3379 57.073V56.688C34.3379 55.533 34.3379 54.433 34.3489 53.344H35.2839C37.0549 53.344 38.0889 54.609 38.0889 56.952C38.0889 59.218 37.0659 60.538 35.1959 60.538H34.3489ZM31.9509 52.893V53.289L33.0399 53.41C33.0619 54.488 33.0619 55.588 33.0619 56.688V57.084C33.0619 58.305 33.0619 59.416 33.0399 60.483L31.9509 60.604V61H35.2509C37.7699 61 39.4749 59.515 39.4749 56.941C39.4749 54.367 37.9019 52.893 35.4709 52.893H31.9509ZM48.263 57.106H44.996V57.513L46.239 57.623C46.261 58.382 46.272 59.163 46.272 59.922V60.494C45.876 60.626 45.502 60.692 45.062 60.692C43.302 60.692 42.136 59.295 42.136 56.941C42.136 54.51 43.379 53.179 45.062 53.179C45.535 53.179 45.931 53.267 46.316 53.476L46.679 55.126H47.328V53.289C46.646 52.904 45.92 52.695 44.919 52.695C42.444 52.695 40.728 54.433 40.728 56.941C40.728 59.471 42.4 61.198 44.875 61.198C45.876 61.198 46.657 60.934 47.504 60.472V59.933C47.504 59.108 47.515 58.338 47.537 57.59L48.263 57.513V57.106Z" fill="black"/>
<path d="M72.7834 35.5238C68.8041 31.6409 63.778 29.167 58.2544 28.3691C57.8613 28.3153 57.4922 28.5811 57.4361 28.9708C57.3799 29.3596 57.6527 29.7212 58.0458 29.7785C63.0198 30.4961 67.5647 32.6527 71.235 36.0301C61.9769 44.54 47.5843 44.7492 38.0694 36.6697C51.6156 35.6998 62.4141 24.5388 62.4863 11.0108C62.4903 10.8205 62.4141 10.6377 62.2777 10.5032C62.1413 10.3695 61.9568 10.2948 61.7643 10.2948C61.7643 10.2948 61.7643 10.2948 61.7603 10.2948C56.2808 10.3241 51.042 12.0127 46.6176 15.1785C46.2966 15.4095 46.2244 15.8549 46.4571 16.1729C46.6938 16.4906 47.143 16.5626 47.468 16.3312C51.4472 13.4838 56.1204 11.902 61.0302 11.7335C60.585 24.1725 50.5446 34.3279 38.0052 35.2465C46.8823 25.1286 46.5574 9.76194 36.9663 0.202633C36.6935 -0.067543 36.2122 -0.067543 35.9394 0.202633C32.0003 4.12786 29.4932 9.08236 28.6845 14.5301C28.6268 14.919 28.9 15.2805 29.2943 15.3379C29.6898 15.3945 30.056 15.1255 30.1134 14.7362C30.8414 9.83197 33.0272 5.35136 36.4529 1.73111C44.997 10.7813 45.1414 24.9063 36.9422 34.2844C35.9635 21.044 24.784 10.4384 11.2361 10.3011C11.0592 10.3066 10.8578 10.3731 10.7207 10.5068C10.5839 10.6405 10.5065 10.8229 10.5065 11.0127V13.4312C10.5065 13.455 10.5076 13.4795 10.5101 13.5032C10.9573 17.8351 12.5338 22.0123 15.0685 25.5835C15.2968 25.9055 15.7464 25.9838 16.0738 25.7587C16.4007 25.5329 16.4801 25.089 16.2515 24.767C13.8652 21.4043 12.3781 17.4724 11.9505 13.3948V11.743C24.4041 12.237 34.5716 22.0922 35.4982 34.3473C25.3688 25.7307 9.90357 26.0819 0.216641 35.4383C0.0790526 35.5716 0.000816225 35.7532 1.39618e-05 35.9434C-0.00118943 36.1337 0.0754471 36.3161 0.211431 36.4506L1.94589 38.1606C1.96314 38.1776 1.98123 38.1938 1.99968 38.2093C6.61991 41.9225 12.4543 43.966 18.4356 43.9656C18.4513 43.9656 18.4677 43.9656 18.4834 43.9656C23.1578 43.962 27.7395 42.7247 31.7396 40.3853C32.0805 40.1847 32.1928 39.748 31.9923 39.4098C31.7877 39.0716 31.3432 38.9601 31.0011 39.161C27.228 41.3683 22.9042 42.5368 18.4922 42.5415C18.491 42.5415 18.4902 42.5415 18.4894 42.5415H18.43C18.4272 42.5415 18.424 42.5415 18.4212 42.5415C12.7889 42.5384 7.29502 40.6175 2.94073 37.1282L1.75618 35.9601C11.3416 27.2346 26.4531 27.436 35.787 36.536C35.787 36.5376 35.787 36.5384 35.791 36.54C40.8894 41.5138 47.5843 44 54.2832 44C60.9821 44 67.685 41.5115 72.7834 36.536C72.9198 36.4023 73 36.22 73 36.0301C73 35.8398 72.9198 35.6575 72.7834 35.5238Z" fill="black"/>
</svg>
