<svg width="707" height="141" viewBox="0 0 707 141" fill="none" xmlns="http://www.w3.org/2000/svg">
<path d="M63.9688 103.188C63.9688 97.875 62.0938 93.8125 58.3438 91C54.5938 88.125 47.8438 85.125 38.0938 82C28.3438 78.8125 20.625 75.6875 14.9375 72.625C-0.5625 64.25 -8.3125 52.9688 -8.3125 38.7812C-8.3125 31.4062 -6.25 24.8437 -2.125 19.0938C2.0625 13.2812 8.03125 8.75 15.7812 5.5C23.5938 2.25 32.3438 0.625 42.0312 0.625C51.7812 0.625 60.4688 2.40625 68.0938 5.96875C75.7188 9.46875 81.625 14.4375 85.8125 20.875C90.0625 27.3125 92.1875 34.625 92.1875 42.8125H64.0625C64.0625 36.5625 62.0938 31.7188 58.1562 28.2812C54.2188 24.7813 48.6875 23.0312 41.5625 23.0312C34.6875 23.0312 29.3438 24.5 25.5312 27.4375C21.7188 30.3125 19.8125 34.125 19.8125 38.875C19.8125 43.3125 22.0312 47.0312 26.4688 50.0312C30.9688 53.0312 37.5625 55.8438 46.25 58.4688C62.25 63.2812 73.9062 69.25 81.2188 76.375C88.5312 83.5 92.1875 92.375 92.1875 103C92.1875 114.812 87.7188 124.094 78.7812 130.844C69.8438 137.531 57.8125 140.875 42.6875 140.875C32.1875 140.875 22.625 138.969 14 135.156C5.375 131.281 -1.21875 126 -5.78125 119.312C-10.2812 112.625 -12.5312 104.875 -12.5312 96.0625H15.6875C15.6875 111.125 24.6875 118.656 42.6875 118.656C49.375 118.656 54.5938 117.312 58.3438 114.625C62.0938 111.875 63.9688 108.062 63.9688 103.188ZM172.317 79.8438H118.317V116.406H181.692V139H90.1925V2.5H181.505V25.2812H118.317V57.8125H172.317V79.8438ZM227.604 89.0312H205.197V139H177.072V2.5H227.791C243.916 2.5 256.354 6.09375 265.104 13.2812C273.854 20.4688 278.229 30.625 278.229 43.75C278.229 53.0625 276.197 60.8438 272.135 67.0938C268.135 73.2812 262.041 78.2188 253.854 81.9062L283.385 137.688V139H253.197L227.604 89.0312ZM205.197 66.25H227.885C234.947 66.25 240.416 64.4688 244.291 60.9062C248.166 57.2812 250.104 52.3125 250.104 46C250.104 39.5625 248.26 34.5 244.572 30.8125C240.947 27.125 235.354 25.2812 227.791 25.2812H205.197V66.25ZM327.14 105.156L358.077 2.5H389.39L341.859 139H312.515L265.171 2.5H296.39L327.14 105.156ZM411.114 139H382.989V2.5H411.114V139ZM523.306 93.5312C522.244 108.219 516.806 119.781 506.994 128.219C497.244 136.656 484.369 140.875 468.369 140.875C450.869 140.875 437.087 135 427.025 123.25C417.025 111.438 412.025 95.25 412.025 74.6875V66.3438C412.025 53.2188 414.337 41.6562 418.962 31.6562C423.587 21.6562 430.181 14 438.744 8.6875C447.369 3.3125 457.369 0.625 468.744 0.625C484.494 0.625 497.181 4.84375 506.806 13.2812C516.431 21.7188 521.994 33.5625 523.494 48.8125H495.369C494.681 40 492.212 33.625 487.962 29.6875C483.775 25.6875 477.369 23.6875 468.744 23.6875C459.369 23.6875 452.337 27.0625 447.65 33.8125C443.025 40.5 440.65 50.9062 440.525 65.0312V75.3438C440.525 90.0938 442.744 100.875 447.181 107.688C451.681 114.5 458.744 117.906 468.369 117.906C477.056 117.906 483.525 115.938 487.775 112C492.087 108 494.556 101.844 495.181 93.5312H523.306ZM602.78 79.8438H548.78V116.406H612.155V139H520.655V2.5H611.967V25.2812H548.78V57.8125H602.78V79.8438ZM678.316 103.188C678.316 97.875 676.441 93.8125 672.691 91C668.941 88.125 662.191 85.125 652.441 82C642.691 78.8125 634.972 75.6875 629.285 72.625C613.785 64.25 606.035 52.9688 606.035 38.7812C606.035 31.4062 608.097 24.8437 612.222 19.0938C616.41 13.2812 622.379 8.75 630.129 5.5C637.941 2.25 646.691 0.625 656.379 0.625C666.129 0.625 674.816 2.40625 682.441 5.96875C690.066 9.46875 695.972 14.4375 700.16 20.875C704.41 27.3125 706.535 34.625 706.535 42.8125H678.41C678.41 36.5625 676.441 31.7188 672.504 28.2812C668.566 24.7813 663.035 23.0312 655.91 23.0312C649.035 23.0312 643.691 24.5 639.879 27.4375C636.066 30.3125 634.16 34.125 634.16 38.875C634.16 43.3125 636.379 47.0312 640.816 50.0312C645.316 53.0312 651.91 55.8438 660.597 58.4688C676.597 63.2812 688.254 69.25 695.566 76.375C702.879 83.5 706.535 92.375 706.535 103C706.535 114.812 702.066 124.094 693.129 130.844C684.191 137.531 672.16 140.875 657.035 140.875C646.535 140.875 636.972 138.969 628.347 135.156C619.722 131.281 613.129 126 608.566 119.312C604.066 112.625 601.816 104.875 601.816 96.0625H630.035C630.035 111.125 639.035 118.656 657.035 118.656C663.722 118.656 668.941 117.312 672.691 114.625C676.441 111.875 678.316 108.062 678.316 103.188Z" fill="#003049" fill-opacity="0.02"/>
</svg>
