<svg width="669" height="93" viewBox="0 0 669 93" fill="none" xmlns="http://www.w3.org/2000/svg">
<path d="M40.6074 2.994H31.2974V4.362L35.1354 4.894L29.7394 25.148L23.5454 4.856L27.7634 4.362V2.994H16.3634V4.362L20.3534 4.856L14.0834 25.072L8.76341 4.818L12.5254 4.362V2.994H0.935406V4.362L4.16541 4.742L11.8034 31.228H13.9694L20.6574 9.226L27.6874 31.228H29.8914L37.0734 4.856L40.6074 4.362V2.994ZM62.51 29.366C62.472 27.238 62.434 24.274 62.434 22.184V17.928C62.434 12.57 60.458 10.442 56.886 10.442C54.15 10.442 51.604 11.848 49.4 14.356V6.338L49.514 0.371998L48.982 0.0679996L42.18 1.702V2.88L45.448 3.184V22.184C45.448 24.16 45.41 27.2 45.372 29.366L42.332 29.784V31H52.25V29.784L49.552 29.366C49.514 27.238 49.476 24.198 49.476 22.184V15.724C51.566 13.786 53.352 13.064 55.062 13.064C57.266 13.064 58.368 14.242 58.368 17.852V22.184C58.368 24.274 58.33 27.238 58.292 29.366L55.366 29.784V31H65.284V29.784L62.51 29.366ZM87.0428 11.012H79.0628V12.228L82.7488 12.646L77.6188 27.504L72.1848 12.608L75.6048 12.266V11.012H65.3448V12.228L67.6628 12.532L75.7188 32.444L75.6428 32.672C74.5788 35.408 73.3628 37.536 71.5768 38.942L71.1588 38.524C70.1708 37.422 69.2968 36.776 68.0428 36.776C66.8268 36.776 65.5348 37.422 65.2688 38.676C65.3068 40.272 67.0928 41.374 69.0688 41.374C71.9188 41.374 74.8068 38.866 77.3148 32.064L84.6868 12.608L87.0428 12.228V11.012ZM119.352 4.894L122.886 4.362V2.994H113.538V4.362L117.414 4.894L111.334 17.928L105.216 4.818L109.206 4.362V2.994H97.312V4.362L100.2 4.666L107.8 20.056C107.8 23.894 107.8 26.516 107.724 29.214L103.506 29.632V31H116.426V29.632L112.246 29.214C112.17 26.364 112.17 23.666 112.17 19.524L119.352 4.894ZM131.041 31.57C136.285 31.57 140.883 27.884 140.883 21.006C140.883 14.128 136.133 10.442 131.041 10.442C125.873 10.442 121.161 14.166 121.161 21.006C121.161 27.846 125.721 31.57 131.041 31.57ZM131.041 30.05C127.583 30.05 125.607 27.01 125.607 21.044C125.607 15.04 127.583 11.924 131.041 11.924C134.423 11.924 136.475 15.04 136.475 21.044C136.475 27.01 134.423 30.05 131.041 30.05ZM163.246 29.442V17.054L163.36 11.088L162.942 10.67L156.368 11.468V12.608L159.256 13.178L159.18 26.174C157.546 27.808 155.722 28.758 153.784 28.758C151.58 28.758 150.402 27.542 150.402 23.932V17.054L150.554 11.088L150.174 10.67L143.524 11.43V12.608L146.45 13.178L146.336 23.932C146.26 29.556 148.426 31.57 151.96 31.57C154.658 31.57 157.28 30.012 159.256 27.542L159.56 31.38L165.982 31V29.784L163.246 29.442ZM187.838 14.242C184.912 13.064 183.278 11.544 183.278 8.884C183.278 5.73 185.634 4.096 189.016 4.096C190.232 4.096 191.22 4.286 192.208 4.818L193.5 10.138H195.628L195.856 4.514C193.956 3.146 191.714 2.31 188.864 2.31C183.392 2.31 179.326 5.122 179.326 10.062C179.326 14.28 182.1 16.712 186.622 18.612L188.256 19.334C191.866 20.74 193.272 22.108 193.272 24.768C193.272 28.074 190.726 29.898 186.774 29.898C185.026 29.898 183.81 29.632 182.48 28.948L181.188 23.4H179.098L178.87 29.442C180.884 30.696 183.962 31.684 187.116 31.684C193.272 31.684 197.262 28.53 197.262 23.628C197.262 19.638 195.172 17.282 189.548 15.002L187.838 14.242ZM220.188 29.366C220.15 27.238 220.112 24.274 220.112 22.184V17.928C220.112 12.57 218.136 10.442 214.564 10.442C211.828 10.442 209.282 11.848 207.078 14.356V6.338L207.192 0.371998L206.66 0.0679996L199.858 1.702V2.88L203.126 3.184V22.184C203.126 24.16 203.088 27.2 203.05 29.366L200.01 29.784V31H209.928V29.784L207.23 29.366C207.192 27.238 207.154 24.198 207.154 22.184V15.724C209.244 13.786 211.03 13.064 212.74 13.064C214.944 13.064 216.046 14.242 216.046 17.852V22.184C216.046 24.274 216.008 27.238 215.97 29.366L213.044 29.784V31H222.962V29.784L220.188 29.366ZM235.764 31.57C241.008 31.57 245.606 27.884 245.606 21.006C245.606 14.128 240.856 10.442 235.764 10.442C230.596 10.442 225.884 14.166 225.884 21.006C225.884 27.846 230.444 31.57 235.764 31.57ZM235.764 30.05C232.306 30.05 230.33 27.01 230.33 21.044C230.33 15.04 232.306 11.924 235.764 11.924C239.146 11.924 241.198 15.04 241.198 21.044C241.198 27.01 239.146 30.05 235.764 30.05ZM267.969 29.442V17.054L268.083 11.088L267.665 10.67L261.091 11.468V12.608L263.979 13.178L263.903 26.174C262.269 27.808 260.445 28.758 258.507 28.758C256.303 28.758 255.125 27.542 255.125 23.932V17.054L255.277 11.088L254.897 10.67L248.247 11.43V12.608L251.173 13.178L251.059 23.932C250.983 29.556 253.149 31.57 256.683 31.57C259.381 31.57 262.003 30.012 263.979 27.542L264.283 31.38L270.705 31V29.784L267.969 29.442ZM280.632 29.366C280.594 27.01 280.556 24.502 280.556 22.184V6.338L280.708 0.371998L280.138 0.0679996L273.26 1.702V2.88L276.528 3.184V22.184C276.528 24.502 276.49 27.01 276.452 29.366L273.26 29.784V31H283.786V29.784L280.632 29.366ZM301.034 27.314C299.59 28.796 298.374 29.328 296.74 29.328C293.434 29.328 290.964 26.934 290.964 21.006C290.964 14.926 293.662 12.646 296.816 12.646C298.108 12.646 299.438 13.14 301.034 14.508V27.314ZM305.062 29.48V6.3L305.252 0.371998L304.682 0.0679996L297.766 1.702V2.88L301.186 3.184V13.102C299.514 11.126 297.728 10.442 295.676 10.442C290.508 10.442 286.632 14.546 286.632 21.158C286.632 27.428 290.242 31.57 295.258 31.57C297.766 31.57 299.666 30.506 301.148 28.72L301.414 31.418L308.254 31V29.784L305.062 29.48ZM341.225 23.286L339.933 29.024C338.489 29.708 337.045 29.936 335.563 29.936C329.673 29.936 325.531 25.642 325.531 17.016C325.531 8.466 329.939 3.982 335.639 3.982C337.007 3.982 338.299 4.248 339.591 4.894L340.883 10.708H343.087V4.362C340.427 2.918 337.805 2.31 335.107 2.31C326.975 2.31 320.667 8.048 320.667 17.016C320.667 26.022 326.671 31.684 335.031 31.684C338.147 31.684 340.883 31 343.429 29.556L343.467 23.286H341.225ZM366.733 29.366C366.695 27.238 366.657 24.274 366.657 22.184V17.928C366.657 12.57 364.681 10.442 361.109 10.442C358.373 10.442 355.827 11.848 353.623 14.356V6.338L353.737 0.371998L353.205 0.0679996L346.403 1.702V2.88L349.671 3.184V22.184C349.671 24.16 349.633 27.2 349.595 29.366L346.555 29.784V31H356.473V29.784L353.775 29.366C353.737 27.238 353.699 24.198 353.699 22.184V15.724C355.789 13.786 357.575 13.064 359.285 13.064C361.489 13.064 362.591 14.242 362.591 17.852V22.184C362.591 24.274 362.553 27.238 362.515 29.366L359.589 29.784V31H369.507V29.784L366.733 29.366ZM382.309 31.57C387.553 31.57 392.151 27.884 392.151 21.006C392.151 14.128 387.401 10.442 382.309 10.442C377.141 10.442 372.429 14.166 372.429 21.006C372.429 27.846 376.989 31.57 382.309 31.57ZM382.309 30.05C378.851 30.05 376.875 27.01 376.875 21.044C376.875 15.04 378.851 11.924 382.309 11.924C385.691 11.924 387.743 15.04 387.743 21.044C387.743 27.01 385.691 30.05 382.309 30.05ZM405.502 31.57C410.746 31.57 415.344 27.884 415.344 21.006C415.344 14.128 410.594 10.442 405.502 10.442C400.334 10.442 395.622 14.166 395.622 21.006C395.622 27.846 400.182 31.57 405.502 31.57ZM405.502 30.05C402.044 30.05 400.068 27.01 400.068 21.044C400.068 15.04 402.044 11.924 405.502 11.924C408.884 11.924 410.936 15.04 410.936 21.044C410.936 27.01 408.884 30.05 405.502 30.05ZM426.681 18.688C423.793 17.738 422.805 16.826 422.805 15.04C422.805 13.178 424.249 11.962 426.833 11.962C427.897 11.962 428.847 12.228 429.835 12.722L430.785 16.484H432.685L432.837 12.152C430.937 11.012 429.151 10.442 426.795 10.442C421.931 10.442 419.195 13.14 419.195 16.522C419.195 19.448 421.209 21.12 424.363 22.26L426.377 22.944C429.227 23.894 430.291 24.958 430.291 26.668C430.291 28.72 428.695 29.974 425.503 29.974C424.211 29.974 423.147 29.746 422.121 29.328L421.171 25.224H419.081V29.898C421.171 31 423.109 31.57 425.655 31.57C431.089 31.57 433.977 28.872 433.977 25.376C433.977 22.602 432.381 20.664 428.315 19.296L426.681 18.688ZM441.629 19.372C441.933 14.166 444.403 11.924 446.873 11.924C449.457 11.924 451.243 14.09 451.243 16.902C451.243 18.498 450.825 19.372 449.077 19.372H441.629ZM454.891 20.854C455.081 20.246 455.157 19.486 455.157 18.536C455.157 13.71 451.965 10.442 447.139 10.442C441.971 10.442 437.259 14.47 437.259 21.044C437.259 27.732 441.325 31.57 447.063 31.57C450.749 31.57 453.523 29.746 455.043 26.744L454.283 26.212C452.839 28.036 451.167 29.138 448.469 29.138C444.555 29.138 441.705 26.516 441.591 20.854H454.891ZM495.944 2.994H485.912V4.362L490.282 4.932L490.358 18.84C490.396 26.136 487.926 28.91 483.138 28.91C478.768 28.91 476.184 26.516 476.184 19.372V15.914C476.184 12.152 476.184 8.466 476.26 4.818L480.326 4.362V2.994H468.242V4.362L471.662 4.742C471.776 8.466 471.776 12.228 471.776 15.914V20.246C471.776 28.454 475.956 31.684 482.15 31.684C488.192 31.684 492.068 28.112 492.106 19.562L492.182 4.894L495.944 4.362V2.994ZM505.205 18.688C502.317 17.738 501.329 16.826 501.329 15.04C501.329 13.178 502.773 11.962 505.357 11.962C506.421 11.962 507.371 12.228 508.359 12.722L509.309 16.484H511.209L511.361 12.152C509.461 11.012 507.675 10.442 505.319 10.442C500.455 10.442 497.719 13.14 497.719 16.522C497.719 19.448 499.733 21.12 502.887 22.26L504.901 22.944C507.751 23.894 508.815 24.958 508.815 26.668C508.815 28.72 507.219 29.974 504.027 29.974C502.735 29.974 501.671 29.746 500.645 29.328L499.695 25.224H497.605V29.898C499.695 31 501.633 31.57 504.179 31.57C509.613 31.57 512.501 28.872 512.501 25.376C512.501 22.602 510.905 20.664 506.839 19.296L505.205 18.688ZM532.119 20.246L536.261 7.25L540.555 20.246H532.119ZM547.965 29.252L538.997 2.842H536.185L527.445 29.138L524.101 29.632V31H533.221V29.632L529.269 29.138L531.625 21.804H541.049L543.481 29.176L539.567 29.632V31H551.233V29.632L547.965 29.252ZM561.24 18.688C558.352 17.738 557.364 16.826 557.364 15.04C557.364 13.178 558.808 11.962 561.392 11.962C562.456 11.962 563.406 12.228 564.394 12.722L565.344 16.484H567.244L567.396 12.152C565.496 11.012 563.71 10.442 561.354 10.442C556.49 10.442 553.754 13.14 553.754 16.522C553.754 19.448 555.768 21.12 558.922 22.26L560.936 22.944C563.786 23.894 564.85 24.958 564.85 26.668C564.85 28.72 563.254 29.974 560.062 29.974C558.77 29.974 557.706 29.746 556.68 29.328L555.73 25.224H553.64V29.898C555.73 31 557.668 31.57 560.214 31.57C565.648 31.57 568.536 28.872 568.536 25.376C568.536 22.602 566.94 20.664 562.874 19.296L561.24 18.688ZM602.442 4.894L605.976 4.362V2.994H596.628V4.362L600.504 4.894L594.424 17.928L588.306 4.818L592.296 4.362V2.994H580.402V4.362L583.29 4.666L590.89 20.056C590.89 23.894 590.89 26.516 590.814 29.214L586.596 29.632V31H599.516V29.632L595.336 29.214C595.26 26.364 595.26 23.666 595.26 19.524L602.442 4.894ZM614.131 31.57C619.375 31.57 623.973 27.884 623.973 21.006C623.973 14.128 619.223 10.442 614.131 10.442C608.963 10.442 604.251 14.166 604.251 21.006C604.251 27.846 608.811 31.57 614.131 31.57ZM614.131 30.05C610.673 30.05 608.697 27.01 608.697 21.044C608.697 15.04 610.673 11.924 614.131 11.924C617.513 11.924 619.565 15.04 619.565 21.044C619.565 27.01 617.513 30.05 614.131 30.05ZM646.336 29.442V17.054L646.45 11.088L646.032 10.67L639.458 11.468V12.608L642.346 13.178L642.27 26.174C640.636 27.808 638.812 28.758 636.874 28.758C634.67 28.758 633.492 27.542 633.492 23.932V17.054L633.644 11.088L633.264 10.67L626.614 11.43V12.608L629.54 13.178L629.426 23.932C629.35 29.556 631.516 31.57 635.05 31.57C637.748 31.57 640.37 30.012 642.346 27.542L642.65 31.38L649.072 31V29.784L646.336 29.442ZM658.733 10.86L658.163 10.48L651.741 12.722V13.862L654.933 14.166C655.009 15.914 655.085 17.358 655.085 19.752V22.184C655.085 24.16 655.047 27.2 654.971 29.366L652.045 29.784V31H662.723V29.784L659.189 29.252C659.151 27.124 659.113 24.16 659.113 22.184V18.992C659.911 16.294 661.013 14.546 662.685 13.254L663.179 13.748C664.015 14.622 664.813 15.23 665.953 15.23C667.625 15.23 668.347 14.09 668.385 12.342C667.929 11.012 666.599 10.442 665.193 10.442C662.837 10.442 660.367 12.494 659.113 16.066L658.733 10.86ZM111.858 81.404C111.82 77.604 111.82 73.69 111.82 69.434V68.104C111.82 64.114 111.82 60.314 111.858 56.552H115.088C121.206 56.552 124.778 60.922 124.778 69.016C124.778 76.844 121.244 81.404 114.784 81.404H111.858ZM103.574 54.994V56.362L107.336 56.78C107.412 60.504 107.412 64.304 107.412 68.104V69.472C107.412 73.69 107.412 77.528 107.336 81.214L103.574 81.632V83H114.974C123.676 83 129.566 77.87 129.566 68.978C129.566 60.086 124.132 54.994 115.734 54.994H103.574ZM137.973 57.844C139.493 57.844 140.747 56.742 140.747 55.184C140.747 53.626 139.493 52.562 137.973 52.562C136.415 52.562 135.161 53.626 135.161 55.184C135.161 56.742 136.415 57.844 137.973 57.844ZM140.177 81.366C140.139 79.238 140.101 76.198 140.101 74.184V68.522L140.177 62.86L139.645 62.48L132.691 64.646V65.824L135.921 66.128C135.997 67.952 136.035 69.396 136.035 71.752V74.184C136.035 76.16 135.997 79.2 135.959 81.366L132.995 81.784V83H142.913V81.784L140.177 81.366ZM154.272 74.906C151.802 74.906 150.32 72.702 150.32 69.358C150.32 65.976 151.878 63.772 154.386 63.772C156.932 63.772 158.414 65.938 158.414 69.244C158.414 72.626 156.894 74.906 154.272 74.906ZM157.768 83.76C160.618 83.76 161.682 85.242 161.682 87.028C161.682 89.422 159.174 91.284 154.348 91.284C151.004 91.284 148.8 89.916 148.8 87.142C148.8 85.736 149.294 84.71 150.32 83.57C151.118 83.722 151.878 83.76 153.094 83.76H157.768ZM165.368 62.86L164.684 62.442L159.934 64.114C158.604 63.012 156.704 62.442 154.386 62.442C149.598 62.442 146.558 65.064 146.558 69.32C146.558 72.056 147.736 74.07 149.788 75.21C147.66 77.11 146.862 78.478 146.862 79.96C146.862 81.708 147.812 82.696 149.56 83.266C146.748 84.558 145.57 86.002 145.57 87.788C145.57 90.714 148.154 92.956 154.348 92.956C161.454 92.956 165.064 89.422 165.064 85.66C165.064 82.278 162.936 80.264 158.072 80.264H152.486C150.358 80.264 149.712 79.504 149.712 78.25C149.712 77.3 150.016 76.54 150.738 75.628C151.764 76.046 152.98 76.236 154.348 76.236C159.098 76.236 162.176 73.538 162.176 69.32C162.176 67.686 161.758 66.318 160.96 65.216L165.368 65.444V62.86ZM179.432 80.34C178.368 81.138 177.608 81.518 176.658 81.518C175.138 81.518 174.188 80.606 174.188 78.44V64.722H179.584V63.012H174.226L174.416 57.122H171.68L170.388 62.936L166.702 63.354V64.722H170.16V74.754C170.16 76.312 170.122 77.3 170.122 78.44C170.122 81.936 171.908 83.57 175.1 83.57C177.418 83.57 179.128 82.696 180.192 81.176L179.432 80.34ZM186.846 57.844C188.366 57.844 189.62 56.742 189.62 55.184C189.62 53.626 188.366 52.562 186.846 52.562C185.288 52.562 184.034 53.626 184.034 55.184C184.034 56.742 185.288 57.844 186.846 57.844ZM189.05 81.366C189.012 79.238 188.974 76.198 188.974 74.184V68.522L189.05 62.86L188.518 62.48L181.564 64.646V65.824L184.794 66.128C184.87 67.952 184.908 69.396 184.908 71.752V74.184C184.908 76.16 184.87 79.2 184.832 81.366L181.868 81.784V83H191.786V81.784L189.05 81.366ZM206.641 78.858C204.513 80.568 203.563 81.1 202.195 81.1C200.295 81.1 198.965 80.112 198.965 77.87C198.965 75.97 199.839 74.298 203.183 72.968C203.981 72.664 205.273 72.246 206.641 71.866V78.858ZM213.823 80.492C213.177 81.252 212.759 81.556 212.075 81.556C211.201 81.556 210.631 80.948 210.631 79.048V69.7C210.631 64.494 208.541 62.442 203.905 62.442C199.231 62.442 196.153 64.456 195.507 67.724C195.659 68.826 196.381 69.396 197.521 69.396C198.699 69.396 199.497 68.636 199.801 67.04L200.447 64.228C201.283 64 202.005 63.924 202.689 63.924C205.539 63.924 206.641 65.026 206.641 69.092V70.65C205.045 71.03 203.373 71.524 202.081 71.904C196.533 73.804 194.937 75.666 194.937 78.478C194.937 81.746 197.293 83.57 200.409 83.57C203.069 83.57 204.551 82.43 206.755 80.188C207.135 82.24 208.503 83.494 210.631 83.494C212.341 83.494 213.557 82.886 214.469 81.176L213.823 80.492ZM223.298 81.366C223.26 79.01 223.222 76.502 223.222 74.184V58.338L223.374 52.372L222.804 52.068L215.926 53.702V54.88L219.194 55.184V74.184C219.194 76.502 219.156 79.01 219.118 81.366L215.926 81.784V83H226.452V81.784L223.298 81.366ZM273.184 56.362V54.994H264.71L256.046 77.414L247.002 54.994H238.718V56.362L242.594 56.856L242.518 81.1L238.604 81.632V83H248.18V81.632L244.418 81.1V68.332C244.418 67.61 244.266 62.48 244.19 58.756L253.918 83H255.704L265.052 58.718L264.976 70.308C264.938 73.766 264.976 77.528 264.9 81.214L261.328 81.632V83H273.184V81.632L269.422 81.214C269.308 77.49 269.308 73.728 269.308 69.966V68.028C269.308 64.266 269.308 60.504 269.422 56.78L273.184 56.362ZM287.651 78.858C285.523 80.568 284.573 81.1 283.205 81.1C281.305 81.1 279.975 80.112 279.975 77.87C279.975 75.97 280.849 74.298 284.193 72.968C284.991 72.664 286.283 72.246 287.651 71.866V78.858ZM294.833 80.492C294.187 81.252 293.769 81.556 293.085 81.556C292.211 81.556 291.641 80.948 291.641 79.048V69.7C291.641 64.494 289.551 62.442 284.915 62.442C280.241 62.442 277.163 64.456 276.517 67.724C276.669 68.826 277.391 69.396 278.531 69.396C279.709 69.396 280.507 68.636 280.811 67.04L281.457 64.228C282.293 64 283.015 63.924 283.699 63.924C286.549 63.924 287.651 65.026 287.651 69.092V70.65C286.055 71.03 284.383 71.524 283.091 71.904C277.543 73.804 275.947 75.666 275.947 78.478C275.947 81.746 278.303 83.57 281.419 83.57C284.079 83.57 285.561 82.43 287.765 80.188C288.145 82.24 289.513 83.494 291.641 83.494C293.351 83.494 294.567 82.886 295.479 81.176L294.833 80.492ZM303.93 62.86L303.36 62.48L296.938 64.722V65.862L300.13 66.166C300.206 67.914 300.282 69.358 300.282 71.752V74.184C300.282 76.16 300.244 79.2 300.168 81.366L297.242 81.784V83H307.92V81.784L304.386 81.252C304.348 79.124 304.31 76.16 304.31 74.184V70.992C305.108 68.294 306.21 66.546 307.882 65.254L308.376 65.748C309.212 66.622 310.01 67.23 311.15 67.23C312.822 67.23 313.544 66.09 313.582 64.342C313.126 63.012 311.796 62.442 310.39 62.442C308.034 62.442 305.564 64.494 304.31 68.066L303.93 62.86ZM334.062 81.404L326.994 69.434L331.744 64.798L335.62 64.304V63.012H325.93V64.304L329.388 64.95L321.636 72.74V58.338L321.788 52.372L321.218 52.068L314.34 53.702V54.88L317.608 55.184V74.184C317.608 76.35 317.57 79.124 317.532 81.366L314.378 81.784V83H324.752V81.784L321.712 81.366C321.674 79.314 321.636 76.806 321.636 74.678L324.144 72.208L330.376 83H336.684V81.784L334.062 81.404ZM342.101 71.372C342.405 66.166 344.875 63.924 347.345 63.924C349.929 63.924 351.715 66.09 351.715 68.902C351.715 70.498 351.297 71.372 349.549 71.372H342.101ZM355.363 72.854C355.553 72.246 355.629 71.486 355.629 70.536C355.629 65.71 352.437 62.442 347.611 62.442C342.443 62.442 337.731 66.47 337.731 73.044C337.731 79.732 341.797 83.57 347.535 83.57C351.221 83.57 353.995 81.746 355.515 78.744L354.755 78.212C353.311 80.036 351.639 81.138 348.941 81.138C345.027 81.138 342.177 78.516 342.063 72.854H355.363ZM370.657 80.34C369.593 81.138 368.833 81.518 367.883 81.518C366.363 81.518 365.413 80.606 365.413 78.44V64.722H370.809V63.012H365.451L365.641 57.122H362.905L361.613 62.936L357.927 63.354V64.722H361.385V74.754C361.385 76.312 361.347 77.3 361.347 78.44C361.347 81.936 363.133 83.57 366.325 83.57C368.643 83.57 370.353 82.696 371.417 81.176L370.657 80.34ZM378.07 57.844C379.59 57.844 380.844 56.742 380.844 55.184C380.844 53.626 379.59 52.562 378.07 52.562C376.512 52.562 375.258 53.626 375.258 55.184C375.258 56.742 376.512 57.844 378.07 57.844ZM380.274 81.366C380.236 79.238 380.198 76.198 380.198 74.184V68.522L380.274 62.86L379.742 62.48L372.788 64.646V65.824L376.018 66.128C376.094 67.952 376.132 69.396 376.132 71.752V74.184C376.132 76.16 376.094 79.2 376.056 81.366L373.092 81.784V83H383.01V81.784L380.274 81.366ZM405.922 81.366C405.884 79.238 405.846 76.274 405.846 74.184V69.89C405.846 64.646 403.87 62.442 400.336 62.442C397.79 62.442 395.206 63.734 392.926 66.28L392.622 62.86L392.052 62.48L385.63 64.722V65.862L388.822 66.166C388.898 67.914 388.974 69.358 388.974 71.752V74.184C388.974 76.16 388.936 79.2 388.86 81.366L385.896 81.784V83H395.814V81.784L393.078 81.366C393.04 79.238 393.002 76.198 393.002 74.184V67.762C395.092 65.862 396.878 65.064 398.512 65.064C400.754 65.064 401.818 66.28 401.818 69.852V74.184C401.818 76.274 401.78 79.238 401.742 81.366L398.778 81.784V83H408.696V81.784L405.922 81.366ZM419.901 74.906C417.431 74.906 415.949 72.702 415.949 69.358C415.949 65.976 417.507 63.772 420.015 63.772C422.561 63.772 424.043 65.938 424.043 69.244C424.043 72.626 422.523 74.906 419.901 74.906ZM423.397 83.76C426.247 83.76 427.311 85.242 427.311 87.028C427.311 89.422 424.803 91.284 419.977 91.284C416.633 91.284 414.429 89.916 414.429 87.142C414.429 85.736 414.923 84.71 415.949 83.57C416.747 83.722 417.507 83.76 418.723 83.76H423.397ZM430.997 62.86L430.313 62.442L425.563 64.114C424.233 63.012 422.333 62.442 420.015 62.442C415.227 62.442 412.187 65.064 412.187 69.32C412.187 72.056 413.365 74.07 415.417 75.21C413.289 77.11 412.491 78.478 412.491 79.96C412.491 81.708 413.441 82.696 415.189 83.266C412.377 84.558 411.199 86.002 411.199 87.788C411.199 90.714 413.783 92.956 419.977 92.956C427.083 92.956 430.693 89.422 430.693 85.66C430.693 82.278 428.565 80.264 423.701 80.264H418.115C415.987 80.264 415.341 79.504 415.341 78.25C415.341 77.3 415.645 76.54 416.367 75.628C417.393 76.046 418.609 76.236 419.977 76.236C424.727 76.236 427.805 73.538 427.805 69.32C427.805 67.686 427.387 66.318 426.589 65.216L430.997 65.444V62.86ZM463.145 75.476L461.891 81.328H451.631C451.593 77.566 451.593 73.728 451.593 69.51H457.673L458.205 73.5H459.953V63.848H458.205L457.635 67.952H451.593C451.593 64.038 451.593 60.314 451.631 56.666H461.093L462.347 62.328H464.361L464.247 54.994H443.347V56.362L447.109 56.78C447.185 60.504 447.185 64.304 447.185 68.028V69.966C447.185 73.766 447.185 77.528 447.109 81.214L443.347 81.632V83H465.045L465.159 75.476H463.145ZM485.911 81.442L479.641 72.246L485.531 64.722L488.001 64.304V63.012H480.439V64.304L483.365 64.76L478.843 71.03L474.511 64.684L477.209 64.304V63.012H467.405V64.304L469.913 64.646L475.879 73.5L469.799 81.366L467.063 81.784V83H475.081V81.784L471.965 81.328L476.715 74.754L481.199 81.404L478.083 81.784V83H488.495V81.784L485.911 81.442ZM496.984 66.698C498.96 64.95 500.404 64.608 501.62 64.608C504.812 64.608 506.94 67.344 506.94 73.082C506.94 79.048 504.508 81.328 501.316 81.328C499.796 81.328 498.428 80.834 496.984 79.542V66.698ZM496.528 62.86L495.996 62.48L489.574 64.722V65.862L492.766 66.166C492.88 67.914 492.918 69.396 492.918 71.79V83.912C492.918 86.23 492.88 88.776 492.804 91.284L489.726 91.74V92.956H500.556V91.74L496.946 91.246C496.908 88.7 496.87 86.116 496.87 83.874V80.834C498.618 82.924 500.594 83.57 502.532 83.57C507.472 83.57 511.272 79.466 511.272 72.892C511.272 66.318 507.776 62.442 503.216 62.442C500.936 62.442 498.732 63.354 496.794 65.482L496.528 62.86ZM519.113 71.372C519.417 66.166 521.887 63.924 524.357 63.924C526.941 63.924 528.727 66.09 528.727 68.902C528.727 70.498 528.309 71.372 526.561 71.372H519.113ZM532.375 72.854C532.565 72.246 532.641 71.486 532.641 70.536C532.641 65.71 529.449 62.442 524.623 62.442C519.455 62.442 514.743 66.47 514.743 73.044C514.743 79.732 518.809 83.57 524.547 83.57C528.233 83.57 531.007 81.746 532.527 78.744L531.767 78.212C530.323 80.036 528.651 81.138 525.953 81.138C522.039 81.138 519.189 78.516 519.075 72.854H532.375ZM542.766 62.86L542.196 62.48L535.774 64.722V65.862L538.966 66.166C539.042 67.914 539.118 69.358 539.118 71.752V74.184C539.118 76.16 539.08 79.2 539.004 81.366L536.078 81.784V83H546.756V81.784L543.222 81.252C543.184 79.124 543.146 76.16 543.146 74.184V70.992C543.944 68.294 545.046 66.546 546.718 65.254L547.212 65.748C548.048 66.622 548.846 67.23 549.986 67.23C551.658 67.23 552.38 66.09 552.418 64.342C551.962 63.012 550.632 62.442 549.226 62.442C546.87 62.442 544.4 64.494 543.146 68.066L542.766 62.86ZM566.334 80.34C565.27 81.138 564.51 81.518 563.56 81.518C562.04 81.518 561.09 80.606 561.09 78.44V64.722H566.486V63.012H561.128L561.318 57.122H558.582L557.29 62.936L553.604 63.354V64.722H557.062V74.754C557.062 76.312 557.024 77.3 557.024 78.44C557.024 81.936 558.81 83.57 562.002 83.57C564.32 83.57 566.03 82.696 567.094 81.176L566.334 80.34Z" fill="black"/>
</svg>
